<?xml version="1.0" encoding="utf-8"?>
<!-- Generator: Adobe Illustrator 15.0.2, SVG Export Plug-In . SVG Version: 6.00 Build 0)  -->
<!DOCTYPE svg PUBLIC "-//W3C//DTD SVG 1.1//EN" "http://www.w3.org/Graphics/SVG/1.1/DTD/svg11.dtd">
<svg version="1.1" id="Calque_1" xmlns="http://www.w3.org/2000/svg" xmlns:xlink="http://www.w3.org/1999/xlink" x="0px" y="0px"
	 width="453.241px" height="453.241px" viewBox="0 0 453.241 453.241" enable-background="new 0 0 453.241 453.241"
	 xml:space="preserve">
<g>
	<defs>
		<rect id="SVGID_1_" width="453.241" height="453.241"/>
	</defs>
	<clipPath id="SVGID_2_">
		<use xlink:href="#SVGID_1_"  overflow="visible"/>
	</clipPath>
	<path clip-path="url(#SVGID_2_)" fill="#15BEF0" d="M399.383,453.241H53.858C24.236,453.241,0,429.005,0,399.383V53.859
		C0,24.237,24.236,0,53.858,0h345.524c29.621,0,53.857,24.237,53.857,53.859v345.524
		C453.24,429.005,429.004,453.241,399.383,453.241"/>
	<path clip-path="url(#SVGID_2_)" fill="#FFFFFF" d="M371.717,58.788c0.4-0.015,0.811-0.028,1.209-0.036"/>
	<rect x="58.984" y="288.87" clip-path="url(#SVGID_2_)" fill="#FFFFFF" width="18.388" height="111.364"/>
	<path clip-path="url(#SVGID_2_)" fill="#FFFFFF" d="M92.8,301.017c2.147-2.145,4.707-3.218,7.684-3.218
		c2.975,0,5.536,1.073,7.684,3.218c2.142,2.147,3.216,4.705,3.216,7.682c0,3.068-1.051,5.65-3.152,7.749
		c-2.1,2.102-4.685,3.156-7.748,3.156c-3.066,0-5.648-1.055-7.751-3.156c-2.098-2.099-3.149-4.681-3.149-7.749
		C89.584,305.722,90.656,303.164,92.8,301.017 M109.675,400.234H91.289v-64.48h18.386V400.234z"/>
	<path clip-path="url(#SVGID_2_)" fill="#FFFFFF" d="M142.639,351.252v48.981H124.25v-48.981h-6.171v-15.498h6.171v-18.912
		c0-8.665,1.971-15.759,5.911-21.275c3.94-5.516,10.068-8.273,18.386-8.273c3.153,0,6.084,0.702,8.8,2.103v16.418
		c-2.977-1.488-5.476-2.236-7.486-2.236c-0.876,0-1.665,0.112-2.365,0.328c-0.702,0.219-1.314,0.593-1.837,1.114
		c-0.524,0.529-0.965,1.033-1.314,1.514c-0.353,0.482-0.639,1.139-0.855,1.971c-0.217,0.833-0.394,1.531-0.524,2.102
		c-0.132,0.569-0.219,1.376-0.262,2.428c-0.045,1.051-0.066,1.819-0.066,2.299v2.232v1.905v16.284h14.709v15.498H142.639z"/>
	<path clip-path="url(#SVGID_2_)" fill="#FFFFFF" d="M220.649,370.95h-42.421c0,4.725,1.027,8.796,3.086,12.214
		c2.058,3.41,5.274,5.121,9.653,5.121c5.34,0,9.454-2.935,12.345-8.801l16.942,2.759c-2.191,6.395-5.91,11.339-11.164,14.838
		c-5.253,3.502-11.293,5.255-18.123,5.255c-9.809,0-17.621-3.128-23.442-9.389c-5.823-6.26-8.733-14.38-8.733-24.36
		c0-10.244,2.691-18.63,8.077-25.147c5.384-6.525,13.11-9.788,23.178-9.788c10.067,0,17.686,3.263,22.847,9.788
		c5.169,6.518,7.755,14.946,7.755,25.276V370.95z M178.755,359.525h24.557c-0.526-3.59-1.863-6.655-4.009-9.194
		c-2.144-2.536-4.878-3.81-8.207-3.81c-3.501,0-6.303,1.249-8.403,3.742C180.592,352.765,179.282,355.847,178.755,359.525"/>
	<path clip-path="url(#SVGID_2_)" fill="#FFFFFF" d="M231.612,301.017c2.144-2.145,4.703-3.218,7.682-3.218
		c2.973,0,5.535,1.073,7.683,3.218c2.144,2.147,3.218,4.705,3.218,7.682c0,3.068-1.05,5.65-3.151,7.749
		c-2.103,2.102-4.686,3.156-7.749,3.156c-3.065,0-5.649-1.055-7.749-3.156c-2.101-2.099-3.151-4.681-3.151-7.749
		C228.394,305.722,229.466,303.164,231.612,301.017 M248.487,400.234h-18.387v-64.48h18.387V400.234z"/>
	<path clip-path="url(#SVGID_2_)" fill="#FFFFFF" d="M280.792,335.754v5.911h0.261c3.502-5.344,9.107-8.015,16.811-8.015
		c14.886,0,22.329,9.063,22.329,27.188v39.396h-18.389V366.09v-4.991c0-0.875-0.178-2.342-0.523-4.398
		c-0.353-2.06-0.834-3.549-1.446-4.466c-0.613-0.92-1.599-1.794-2.954-2.627c-1.357-0.829-3.044-1.249-5.059-1.249
		c-2.539,0-4.617,0.614-6.234,1.842c-1.623,1.224-2.74,3.044-3.353,5.449c-0.609,2.409-1.005,4.448-1.182,6.105
		c-0.176,1.668-0.261,3.854-0.261,6.566v31.912h-18.386v-64.479H280.792z"/>
	<path clip-path="url(#SVGID_2_)" fill="#FFFFFF" d="M394.257,335.754v64.48h-18.122v-5.909h-0.263
		c-4.118,5.341-9.938,8.011-17.466,8.011c-9.018,0-16.22-3.46-21.604-10.376c-5.384-6.913-8.077-15.015-8.077-24.294
		c0-9.104,2.693-17.051,8.077-23.835c5.385-6.783,12.496-10.18,21.341-10.18c7.354,0,13.352,2.72,17.992,8.145v-6.042H394.257z
		 M351.643,380.469c2.845,3.725,6.5,5.583,10.967,5.583c4.466,0,8.142-1.858,11.029-5.583c2.891-3.721,4.335-7.9,4.335-12.542
		c0-4.638-1.444-8.8-4.335-12.476c-2.888-3.674-6.563-5.516-11.029-5.516c-4.467,0-8.122,1.842-10.967,5.516
		c-2.848,3.676-4.269,7.838-4.269,12.476C347.374,372.568,348.795,376.748,351.643,380.469"/>
	<path clip-path="url(#SVGID_2_)" fill="#FFFFFF" d="M223.077,257.718c67.189,29.458,143.556-15.266,150.735-88.276
		c7.179-73.012-59.016-131.753-130.654-115.945c7.589,4.056,14.543,8.792,21.097,14.368c58.22-1.379,102.746,51.501,91.477,108.635
		c-11.271,57.134-72.543,89.144-125.877,65.761c-15.413-6.758-30.573-19.175-40.919-34.492
		c-10.345-15.317-15.906-33.273-13.367-51.795c1.453-10.599,10.508-18.498,21.207-18.498c17.79,0.05,28.638,21.64,29.844,24.039
		c1.205-2.399,12.053-23.989,29.844-24.039c2.52,0,4.862,0.408,7.233,1.259c-1.675-6.391-4.05-12.347-7.233-18.137
		c-11.602,0-22.578,5.261-29.844,14.306c-6.696-8.335-16.573-13.49-27.239-14.217c-20.085-1.37-37.8,13.05-40.534,32.995
		c-3.189,23.27,3.884,45.443,16.103,63.533C187.168,235.306,204.501,249.572,223.077,257.718"/>
	<path clip-path="url(#SVGID_2_)" fill="#FFFFFF" d="M239.02,233.477c38.292-26.792,50.078-78.226,27.274-119.019
		c-22.803-40.793-72.79-57.694-115.67-39.11c-42.88,18.583-64.725,66.616-50.549,111.148
		c14.175,44.532,59.766,71.099,105.498,61.475c5.617,3.838,11.496,7.112,17.504,9.747c1.172,0.514,2.352,1.007,3.542,1.479
		c-51.823,20.556-110.774-1.744-136.017-51.453C65.36,158.033,82.137,97.279,129.31,67.565
		c47.173-29.713,109.214-18.603,143.146,25.633c33.932,44.236,28.584,107.037-12.339,144.898
		C252.807,237.516,245.902,236.003,239.02,233.477"/>
</g>
</svg>
